<?xml version="1.0" encoding="utf-8"?>
<!-- Generator: Adobe Illustrator 24.1.2, SVG Export Plug-In . SVG Version: 6.00 Build 0)  -->
<svg version="1.1" id="Слой_1" xmlns="http://www.w3.org/2000/svg" xmlns:xlink="http://www.w3.org/1999/xlink" x="0px" y="0px"
	 viewBox="0 0 843.9 374.9" style="enable-background:new 0 0 843.9 374.9;" xml:space="preserve">
<style type="text/css">
	.st0{fill:#FFFFFF;}
	.st1{fill:#AE7D50;}
	.st2{fill:#9E7048;}
	.st3{fill:#E09644;}
	.st4{fill:#E6A554;}
	.st5{fill:#FFF0AA;}
	.st6{fill:#EDB66C;}
	.st7{fill:#FFF8CF;}
	.st8{fill:#CD9D67;}
	.st9{fill:#BE8959;}
	.st10{fill:#8E6340;}
</style>
<g>
	<path class="st0" d="M430,137.2c0,15.9-12.6,25.2-36.9,25.2h-47.7V70.2h45.1c23.1,0,34.9,9.6,34.9,24c0,9.2-4.7,16.3-12.3,20.3
		C423.4,117.7,430,125.6,430,137.2z M366.7,86.2V108h21.2c10.4,0,16.1-3.7,16.1-10.9c0-7.2-5.7-10.8-16.1-10.8H366.7z M408.6,135
		c0-7.8-5.9-11.5-17-11.5h-24.9v22.8h24.9C402.6,146.3,408.6,142.9,408.6,135z"/>
	<path class="st0" d="M507.5,121.9v40.5h-19.2v-8.8c-3.8,6.5-11.2,9.9-21.6,9.9c-16.6,0-26.5-9.2-26.5-21.5
		c0-12.5,8.8-21.2,30.4-21.2H487c0-8.8-5.3-14-16.3-14c-7.5,0-15.3,2.5-20.4,6.6L442.8,99c7.8-5.5,19.2-8.6,30.6-8.6
		C495,90.5,507.5,100.5,507.5,121.9z M487,140v-7.2h-14.1c-9.6,0-12.6,3.6-12.6,8.3c0,5.1,4.3,8.6,11.6,8.6
		C478.7,149.6,484.6,146.5,487,140z"/>
	<path class="st0" d="M570.1,90.5v19c-1.7-0.1-3-0.3-4.6-0.3c-11.3,0-18.8,6.2-18.8,19.8v33.5h-20.6V91.5h19.6v9.4
		C550.7,94,559.2,90.5,570.1,90.5z"/>
	<path class="st0" d="M653.9,64.6v97.8h-19.6v-8.2c-5.1,6.2-12.6,9.2-22.1,9.2c-20,0-35.4-14.2-35.4-36.5s15.4-36.5,35.4-36.5
		c8.7,0,16.1,2.8,21.2,8.6V64.6H653.9z M633.7,127c0-12.3-7.9-19.6-18.1-19.6c-10.3,0-18.2,7.4-18.2,19.6s7.9,19.6,18.2,19.6
		C625.8,146.6,633.7,139.2,633.7,127z"/>
	<path class="st0" d="M735.6,121.9v40.5h-19.2v-8.8c-3.8,6.5-11.2,9.9-21.6,9.9c-16.6,0-26.5-9.2-26.5-21.5
		c0-12.5,8.8-21.2,30.4-21.2H715c0-8.8-5.3-14-16.3-14c-7.5,0-15.3,2.5-20.4,6.6L670.9,99c7.8-5.5,19.2-8.6,30.6-8.6
		C723.1,90.5,735.6,100.5,735.6,121.9z M715,140v-7.2h-14.1c-9.6,0-12.6,3.6-12.6,8.3c0,5.1,4.3,8.6,11.6,8.6
		C706.7,149.6,712.7,146.5,715,140z"/>
	<path class="st0" d="M798.2,90.5v19c-1.7-0.1-3-0.3-4.6-0.3c-11.3,0-18.8,6.2-18.8,19.8v33.5h-20.6V91.5h19.6v9.4
		C778.8,94,787.2,90.5,798.2,90.5z"/>
	<path class="st0" d="M430,295.3c0,15.9-12.6,25.2-36.9,25.2h-47.7v-92.2h45.1c23.1,0,34.9,9.6,34.9,24c0,9.2-4.7,16.3-12.3,20.3
		C423.4,275.8,430,283.8,430,295.3z M366.7,244.4v21.7h21.2c10.4,0,16.1-3.7,16.1-10.9c0-7.2-5.7-10.8-16.1-10.8H366.7z
		 M408.6,293.1c0-7.8-5.9-11.5-17-11.5h-24.9v22.8h24.9C402.6,304.4,408.6,301,408.6,293.1z"/>
	<path class="st0" d="M507.5,280.1v40.5h-19.2v-8.8c-3.8,6.5-11.2,9.9-21.6,9.9c-16.6,0-26.5-9.2-26.5-21.5
		c0-12.5,8.8-21.2,30.4-21.2H487c0-8.8-5.3-14-16.3-14c-7.5,0-15.3,2.5-20.4,6.6l-7.4-14.4c7.8-5.5,19.2-8.6,30.6-8.6
		C495,248.6,507.5,258.6,507.5,280.1z M487,298.1v-7.2h-14.1c-9.6,0-12.6,3.6-12.6,8.3c0,5.1,4.3,8.6,11.6,8.6
		C478.7,307.7,484.6,304.6,487,298.1z"/>
	<path class="st0" d="M556.5,292.7l-9.9,9.8v18.1h-20.6v-97.8h20.6v55.3l30-28.5h24.5l-29.5,30l32.1,40.8h-24.9L556.5,292.7z"/>
	<path class="st0" d="M679.1,290.9h-53.6c2,8.8,9.5,14.2,20.3,14.2c7.5,0,12.9-2.2,17.8-6.9l10.9,11.9c-6.6,7.5-16.5,11.5-29.3,11.5
		c-24.5,0-40.5-15.4-40.5-36.5c0-21.2,16.2-36.5,37.8-36.5c20.8,0,36.9,14,36.9,36.8C679.5,286.9,679.2,289.2,679.1,290.9z
		 M625.2,278.9h34.9c-1.4-9-8.2-14.8-17.4-14.8C633.3,264.1,626.6,269.8,625.2,278.9z"/>
	<path class="st0" d="M737.2,248.6v19c-1.7-0.1-3-0.3-4.6-0.3c-11.3,0-18.8,6.2-18.8,19.8v33.5h-20.6v-70.9h19.6v9.4
		C717.8,252.1,726.2,248.6,737.2,248.6z"/>
	<path class="st0" d="M822.3,249.6l-32,75.2c-6.9,17.1-16.6,22.3-29.4,22.3c-7.2,0-15.2-2.4-19.8-6.5l7.5-14.6
		c3.2,2.8,7.5,4.5,11.6,4.5c5.7,0,8.8-2.5,11.6-8.8l0.3-0.7l-30.7-71.4h21.2l19.9,48.1l20-48.1H822.3z"/>
</g>
<g>
	<path class="st1" d="M165.5,26C97.1,26,41.7,81.5,41.7,149.9v28.6h19.1v-28.6c0-57.9,46.9-104.8,104.8-104.8S270.4,92,270.4,149.9
		v28.6h19.1v-28.6C289.4,81.5,234,26,165.5,26z"/>
	<path class="st2" d="M175.1,35.5C106.7,35.5,51.2,91,51.2,159.4v19.1h9.5v-28.6c0-57.9,46.9-104.8,104.8-104.8
		S270.4,92,270.4,149.9v28.6h19.1v-28.6c0-30.5-11.2-60-31.7-82.7C235.1,46.8,205.6,35.5,175.1,35.5z"/>
	<path class="st3" d="M75,116.5v66.7c0,2.6,2.1,4.8,4.8,4.8h90.5c2.6,0,4.8-2.1,4.8-4.8v-38.1L75,116.5z"/>
	<path class="st4" d="M175.1,145.1c10.5-7.9,12.7-22.8,4.8-33.3c-4.5-6-11.6-9.5-19.1-9.5h-81v42.9H175.1z"/>
	<path class="st5" d="M84.6,107H46.4c-10.5,0-19.1,8.5-19.1,19c0,6.8,3.6,13.1,9.5,16.5v40.7h57.2v-40.7c9.1-5.3,12.2-16.9,7-26
		C97.7,110.6,91.4,107,84.6,107z"/>
	<path class="st6" d="M94.1,188H36.9c-2.6,0-4.8-2.1-4.8-4.8v-38.1c-10.5-7.9-12.7-22.8-4.8-33.3c4.5-6,11.6-9.5,19.1-9.5h38.1
		c13.1,0,23.8,10.6,23.8,23.8c0,7.5-3.5,14.6-9.5,19.1v38.1C98.9,185.8,96.7,188,94.1,188z M41.7,178.5h47.6v-35.9
		c0-1.7,0.9-3.3,2.4-4.1c6.8-3.9,9.2-12.7,5.2-19.5c-2.6-4.4-7.3-7.2-12.4-7.2H46.4c-7.9,0-14.3,6.4-14.3,14.3
		c0,5.1,2.7,9.8,7.2,12.4c1.5,0.9,2.4,2.4,2.4,4.1L41.7,178.5z"/>
	<path class="st7" d="M226.3,45.7c18.8,10.8,1.5,42.8-20.8,81.5s-41.4,69.6-60.2,58.8s-15.8-51,6.5-89.8S207.5,34.8,226.3,45.7z"/>
	<path class="st5" d="M229.9,48.6c-19.2-5.3-49.2,16.6-69.9,52.4s-24.7,72.7-10.4,86.7c17.4,4.3,35.2-24.7,55.8-60.5
		S242.3,61.5,229.9,48.6z"/>
	<path class="st8" d="M126.3,142l17.8,10.3c4.6,2.6,10.4,1.1,13-3.5c2.6-4.6,1.1-10.4-3.5-13c0,0,0,0,0,0L131.6,123
		c2.6-7.6,5.8-14.9,9.4-22.1l24.5,14.2c4.6,2.6,10.4,1.1,13-3.5c2.6-4.6,1.1-10.4-3.5-13c0,0,0,0,0,0l-24.5-14.2
		c4.3-6.7,9.2-13.1,14.4-19.2L187,78c4.6,2.6,10.4,1.1,13-3.5c2.6-4.6,1.1-10.4-3.5-13c0,0,0,0,0,0l-17.8-10.3
		c20.4-18,41.7-25.4,56.3-17c23.1,13.3,2.9,50.9-23.4,96.5s-48.8,81.9-71.8,68.5C125.2,190.8,120.9,168.7,126.3,142L126.3,142z"/>
	<path class="st9" d="M144.2,201.2c21.6,6.8,42.8-27.8,67.5-70.5s43.9-78.4,27.3-93.7c-14.3-4.9-33.5,2.6-52,18.9l17.8,10.3
		c4.6,2.6,6.1,8.5,3.5,13c-2.6,4.5-8.5,6.1-13,3.5l-22.1-12.7c-5.2,6.1-10,12.5-14.4,19.2l24.5,14.2c4.6,2.6,6.1,8.5,3.5,13
		c-2.6,4.5-8.5,6.1-13,3.5l-24.5-14.2c-3.6,7.1-6.8,14.5-9.4,22.1l22.1,12.7c4.6,2.6,6.1,8.5,3.5,13c-2.6,4.5-8.5,6.1-13,3.5
		l-17.8-10.3C129.7,170.9,132.7,191.3,144.2,201.2L144.2,201.2z"/>
	<path class="st6" d="M175.1,167.5c0,25.7,27.7,30,61.9,30s61.9-4.3,61.9-30s-27.7-55.7-61.9-55.7S175.1,141.8,175.1,167.5z"/>
	<path class="st4" d="M246.5,121.3c-34.2,0-61.9,30-61.9,55.7c-0.1,4.3,0.9,8.5,2.8,12.3c11.3,6.6,29.3,8.2,49.6,8.2
		c34.2,0,61.9-4.3,61.9-30c-0.5-11.7-5-22.8-12.7-31.6C275.1,126.6,261.1,121.4,246.5,121.3L246.5,121.3z"/>
	<path class="st3" d="M215.6,150.4l38.1-21.5c2.3-1.3,5.2-0.5,6.5,1.8l0,0c1.3,2.3,0.5,5.2-1.8,6.5l-38.1,21.5
		c-2.3,1.3-5.2,0.5-6.5-1.8l0,0C212.5,154.6,213.3,151.7,215.6,150.4z"/>
	<path class="st3" d="M213.8,130.7L213.8,130.7c1.3-2.3,4.2-3.1,6.5-1.8l38.1,21.4c2.3,1.3,3.1,4.2,1.8,6.5l0,0
		c-1.3,2.3-4.2,3.1-6.5,1.8l-38.1-21.4C213.3,135.9,212.5,133,213.8,130.7z"/>
	<path class="st1" d="M32.2,202.3h266.8l-22.3,111.4c-0.9,4.5-4.8,7.7-9.3,7.7H63.8c-4.5,0-8.5-3.2-9.3-7.7L32.2,202.3z"/>
	<path class="st2" d="M34.1,211.8h263l1.9-9.5H32.2L34.1,211.8z"/>
	<path class="st2" d="M276.7,313.7l22.3-111.4H41.7L64,313.7c0.9,4.5,4.8,7.7,9.3,7.7h194C271.9,321.4,275.8,318.2,276.7,313.7z"/>
	<g>
		<path class="st10" d="M43.6,211.8H297l1.9-9.5H41.7L43.6,211.8z"/>
		<path class="st10" d="M120.3,302.3h-9.5c-2.6,0-4.8-2.1-4.8-4.8c0-2.6,2.1-4.8,4.8-4.8h9.5c2.6,0,4.8,2.1,4.8,4.8
			C125.1,300.2,122.9,302.3,120.3,302.3z"/>
		<path class="st10" d="M103.6,278.5h-9.5c-2.6,0-4.8-2.1-4.8-4.8c0-2.6,2.1-4.8,4.8-4.8h9.5c2.6,0,4.8,2.1,4.8,4.8
			C108.4,276.4,106.2,278.5,103.6,278.5z"/>
		<path class="st10" d="M120.3,254.7h-9.5c-2.6,0-4.8-2.1-4.8-4.8c0-2.6,2.1-4.8,4.8-4.8h9.5c2.6,0,4.8,2.1,4.8,4.8
			C125.1,252.5,122.9,254.7,120.3,254.7z"/>
		<path class="st10" d="M103.6,230.9h-9.5c-2.6,0-4.8-2.1-4.8-4.8c0-2.6,2.1-4.8,4.8-4.8h9.5c2.6,0,4.8,2.1,4.8,4.8
			C108.4,228.7,106.2,230.9,103.6,230.9z"/>
		<path class="st10" d="M153.6,302.3h-9.5c-2.6,0-4.8-2.1-4.8-4.8c0-2.6,2.1-4.8,4.8-4.8h9.5c2.6,0,4.8,2.1,4.8,4.8
			C158.4,300.2,156.3,302.3,153.6,302.3z"/>
		<path class="st10" d="M137,278.5h-9.5c-2.6,0-4.8-2.1-4.8-4.8c0-2.6,2.1-4.8,4.8-4.8h9.5c2.6,0,4.8,2.1,4.8,4.8
			C141.7,276.4,139.6,278.5,137,278.5z"/>
		<path class="st10" d="M153.6,254.7h-9.5c-2.6,0-4.8-2.1-4.8-4.8c0-2.6,2.1-4.8,4.8-4.8h9.5c2.6,0,4.8,2.1,4.8,4.8
			C158.4,252.5,156.3,254.7,153.6,254.7z"/>
		<path class="st10" d="M137,230.9h-9.5c-2.6,0-4.8-2.1-4.8-4.8c0-2.6,2.1-4.8,4.8-4.8h9.5c2.6,0,4.8,2.1,4.8,4.8
			C141.7,228.7,139.6,230.9,137,230.9z"/>
		<path class="st10" d="M187,302.3h-9.5c-2.6,0-4.8-2.1-4.8-4.8c0-2.6,2.1-4.8,4.8-4.8h9.5c2.6,0,4.8,2.1,4.8,4.8
			C191.8,300.2,189.6,302.3,187,302.3z"/>
		<path class="st10" d="M170.3,278.5h-9.5c-2.6,0-4.8-2.1-4.8-4.8c0-2.6,2.1-4.8,4.8-4.8h9.5c2.6,0,4.8,2.1,4.8,4.8
			C175.1,276.4,172.9,278.5,170.3,278.5z"/>
		<path class="st10" d="M187,254.7h-9.5c-2.6,0-4.8-2.1-4.8-4.8c0-2.6,2.1-4.8,4.8-4.8h9.5c2.6,0,4.8,2.1,4.8,4.8
			C191.8,252.5,189.6,254.7,187,254.7z"/>
		<path class="st10" d="M170.3,230.9h-9.5c-2.6,0-4.8-2.1-4.8-4.8c0-2.6,2.1-4.8,4.8-4.8h9.5c2.6,0,4.8,2.1,4.8,4.8
			C175.1,228.7,172.9,230.9,170.3,230.9z"/>
		<path class="st10" d="M253.7,302.3h-9.5c-2.6,0-4.8-2.1-4.8-4.8c0-2.6,2.1-4.8,4.8-4.8h9.5c2.6,0,4.8,2.1,4.8,4.8
			C258.5,300.2,256.3,302.3,253.7,302.3z"/>
		<path class="st10" d="M237,278.5h-9.5c-2.6,0-4.8-2.1-4.8-4.8c0-2.6,2.1-4.8,4.8-4.8h9.5c2.6,0,4.8,2.1,4.8,4.8
			C241.8,276.4,239.6,278.5,237,278.5z"/>
		<path class="st10" d="M253.7,254.7h-9.5c-2.6,0-4.8-2.1-4.8-4.8c0-2.6,2.1-4.8,4.8-4.8h9.5c2.6,0,4.8,2.1,4.8,4.8
			C258.5,252.5,256.3,254.7,253.7,254.7z"/>
		<path class="st10" d="M237,230.9h-9.5c-2.6,0-4.8-2.1-4.8-4.8c0-2.6,2.1-4.8,4.8-4.8h9.5c2.6,0,4.8,2.1,4.8,4.8
			C241.8,228.7,239.6,230.9,237,230.9z"/>
		<path class="st10" d="M270.4,278.5h-9.5c-2.6,0-4.8-2.1-4.8-4.8c0-2.6,2.1-4.8,4.8-4.8h9.5c2.6,0,4.8,2.1,4.8,4.8
			C275.1,276.4,273,278.5,270.4,278.5z"/>
		<path class="st10" d="M277.5,245.1c-2.6,0-4.8,2.1-4.8,4.8c0,2.6,2.1,4.8,4.8,4.8h11l1.9-9.5H277.5z"/>
		<path class="st10" d="M270.4,230.9h-9.5c-2.6,0-4.8-2.1-4.8-4.8c0-2.6,2.1-4.8,4.8-4.8h9.5c2.6,0,4.8,2.1,4.8,4.8
			C275.1,228.7,273,230.9,270.4,230.9z"/>
		<path class="st10" d="M220.3,302.3h-9.5c-2.6,0-4.8-2.1-4.8-4.8c0-2.6,2.1-4.8,4.8-4.8h9.5c2.6,0,4.8,2.1,4.8,4.8
			C225.1,300.2,223,302.3,220.3,302.3z"/>
		<path class="st10" d="M203.7,278.5h-9.5c-2.6,0-4.8-2.1-4.8-4.8c0-2.6,2.1-4.8,4.8-4.8h9.5c2.6,0,4.8,2.1,4.8,4.8
			C208.4,276.4,206.3,278.5,203.7,278.5z"/>
		<path class="st10" d="M220.3,254.7h-9.5c-2.6,0-4.8-2.1-4.8-4.8c0-2.6,2.1-4.8,4.8-4.8h9.5c2.6,0,4.8,2.1,4.8,4.8
			C225.1,252.5,223,254.7,220.3,254.7z"/>
		<path class="st10" d="M203.7,230.9h-9.5c-2.6,0-4.8-2.1-4.8-4.8c0-2.6,2.1-4.8,4.8-4.8h9.5c2.6,0,4.8,2.1,4.8,4.8
			C208.4,228.7,206.3,230.9,203.7,230.9z"/>
		<path class="st10" d="M86.9,302.3h-9.5c-2.6,0-4.8-2.1-4.8-4.8c0-2.6,2.1-4.8,4.8-4.8h9.5c2.6,0,4.8,2.1,4.8,4.8
			C91.7,300.2,89.6,302.3,86.9,302.3z"/>
		<path class="st10" d="M70.3,278.5h-9.5c-2.6,0-4.8-2.1-4.8-4.8c0-2.6,2.1-4.8,4.8-4.8h9.5c2.6,0,4.8,2.1,4.8,4.8
			C75,276.4,72.9,278.5,70.3,278.5z"/>
		<path class="st10" d="M86.9,254.7h-9.5c-2.6,0-4.8-2.1-4.8-4.8c0-2.6,2.1-4.8,4.8-4.8h9.5c2.6,0,4.8,2.1,4.8,4.8
			C91.7,252.5,89.6,254.7,86.9,254.7z"/>
	</g>
	<path class="st2" d="M53.6,245.1H40.7l1.9,9.5h11c2.6,0,4.8-2.1,4.8-4.8C58.4,247.3,56.2,245.1,53.6,245.1z"/>
	<path class="st10" d="M53.6,245.1h-3.3l1.9,9.5h1.4c2.6,0,4.8-2.1,4.8-4.8C58.4,247.3,56.2,245.1,53.6,245.1z"/>
	<path class="st10" d="M70.3,230.9h-9.5c-2.6,0-4.8-2.1-4.8-4.8c0-2.6,2.1-4.8,4.8-4.8h9.5c2.6,0,4.8,2.1,4.8,4.8
		C75,228.7,72.9,230.9,70.3,230.9z"/>
	<path class="st8" d="M303.7,202.3H27.4c-2.6,0-4.8-2.1-4.8-4.8v-14.3c0-2.6,2.1-4.8,4.8-4.8h276.3c2.6,0,4.8,2.1,4.8,4.8v14.3
		C308.5,200.1,306.3,202.3,303.7,202.3z"/>
	<path class="st9" d="M308.5,188H32.2v14.3h271.6c2.6,0,4.8-2.1,4.8-4.8V188z"/>
</g>
</svg>
