<?xml version="1.0" encoding="utf-8"?>
<!-- Generator: Adobe Illustrator 24.1.2, SVG Export Plug-In . SVG Version: 6.00 Build 0)  -->
<svg version="1.1" id="Capa_1" xmlns="http://www.w3.org/2000/svg" xmlns:xlink="http://www.w3.org/1999/xlink" x="0px" y="0px"
	 viewBox="0 0 512 512" style="enable-background:new 0 0 512 512;" xml:space="preserve">
<style type="text/css">
	.st0{fill:#FFFFFF;}
</style>
<g>
	<path class="st0" d="M10.1,278c-6.4,24.2-5.3,49.3,3.1,72.6c2.5,6.8,7.3,12.8,13.8,17.3c1,43.1,7.9,111.5,23.6,127.2
		C61.4,506,75.9,512,91.3,512c15.4,0,29.9-6,40.8-16.9c12.3-12.3,24.6-52.5,31.5-80.4c2.5-0.1,5-1.1,6.9-2.9l59.9-59.8
		c24,4.4,48.4-3.4,65.3-20.3l31.7-31.7c17.2-17.2,24.7-41.8,20.3-65.4l59.9-61.5c1.8-1.9,2.8-4.4,2.8-6.9
		c32.1-7.6,67.6-19.7,78.7-30.9C500,124.3,506,109.8,506,94.4c0-15.4-6-29.9-16.9-40.8c-2.8-2.8-11.4-11.4-58.8-18.6
		c-24.6-3.8-53.2-6-77.8-6.2l-1.9-4.4c-7.2-16.8-24.9-26.7-42.9-24c-32.8,4.9-64.8,21.2-90.8,46c-27.9-13.3-61.4-7.9-83.7,14.5
		l-76.7,76.7c-22.5,22.5-27.9,56-14.3,84C26.8,237.2,15.7,256.6,10.1,278L10.1,278z M118,481c-7.1,7.1-16.6,11-26.7,11
		s-19.5-3.9-26.7-11.1c-2.1-2.1-7.2-13.6-11.7-42.4c-3-19-5-40.9-5.8-62l97.2,32.4C135.6,445.3,124,474.9,118,481L118,481z
		 M427.3,54.8c32.4,4.9,45.3,10.6,47.6,13c7.1,7.1,11.1,16.6,11.1,26.7s-3.9,19.5-11.1,26.7c-6.3,6.3-35.9,17.8-71.7,26.1L361.1,49
		C382.7,49.5,406.5,51.6,427.3,54.8L427.3,54.8z M310.7,20.2c9-1.4,17.9,3.6,21.5,12.1c0-0.1,47.9,111.8,56.4,131.5l-48.2,49.6
		c-0.5-0.9-1.6-3-2.2-3.8L248.4,74.8c-3.9-6.5-8.7-12.2-14.2-17.1C256.5,37.6,283.4,24.4,310.7,20.2L310.7,20.2z M70.7,151.7
		L147.4,75c24.7-24.7,65.9-19.6,83.9,10.3c0.1,0.1,0.2,0.3,0.3,0.4l89.8,134.8c12.5,21,9.2,48-8.2,65.3l-31.7,31.7
		c-17.2,17.2-44.2,20.8-65.3,8.2l-37.3-24.9c-4.6-3.1-10.8-1.8-13.9,2.8c-3.1,4.6-1.8,10.8,2.8,13.9c0,0,37.8,25.2,37.9,25.3
		c1.2,0.7,2.4,1.4,3.6,2l-48.6,48.5c-0.1,0-117-38.9-119.3-40c-4.6-2.3-8.1-5.7-9.4-9.4c-12.9-35.9-4.1-76.9,21.7-105.1
		c4.8,5.4,10.5,10.1,16.9,14l22.4,14.9c4.6,3.1,10.8,1.8,13.9-2.8c3.1-4.6,1.8-10.8-2.8-13.9c-15.5-10.3-22.6-15.1-23-15.3
		c-7.3-4.4-13.3-10.3-17.8-17.4C49.8,196.9,52.9,169.6,70.7,151.7L70.7,151.7z"/>
	<circle class="st0" cx="136" cy="284" r="10"/>
</g>
</svg>
