<?xml version="1.0" encoding="utf-8"?>
<!-- Generator: Adobe Illustrator 24.1.2, SVG Export Plug-In . SVG Version: 6.00 Build 0)  -->
<svg version="1.1" id="outline" xmlns="http://www.w3.org/2000/svg" xmlns:xlink="http://www.w3.org/1999/xlink" x="0px" y="0px"
	 viewBox="0 0 512 512" style="enable-background:new 0 0 512 512;" xml:space="preserve">
<style type="text/css">
	.st0{fill:#FFFFFF;}
</style>
<path class="st0" d="M256,0C114.6,0,0,114.6,0,256s114.6,256,256,256s256-114.6,256-256C511.8,114.7,397.3,0.2,256,0z M256,496
	C123.5,496,16,388.5,16,256S123.5,16,256,16s240,107.5,240,240C495.8,388.5,388.5,495.8,256,496z"/>
<path class="st0" d="M165,256c0,50.3,40.8,91,91.1,90.9c50.3,0,91-40.8,90.9-91.1c0-18.2-5.5-36-15.7-51.1
	c-2.5-3.7-7.5-4.6-11.1-2.1s-4.6,7.5-2.1,11.1c23.3,34.3,14.4,80.9-19.9,104.2c-34.3,23.3-80.9,14.4-104.2-19.9
	c-23.3-34.3-14.4-80.9,19.9-104.2c26.1-17.7,60.4-17.2,86,1.1c3.6,2.6,8.6,1.8,11.2-1.8s1.8-8.6-1.8-11.2
	c-40.8-29.3-97.7-20.1-127,20.7C171,218.3,165,236.9,165,256z"/>
<path class="st0" d="M460.4,269.3c-2.3-6-2.3-12.7,0-18.7l4.4-11.6c11.5-30.6,0.3-65.1-27-83.1l-10.4-6.8c-5.4-3.5-9.3-8.9-11-15.1
	l-9-33.2c-5.4-19.1-23.1-32-42.9-31.2l-34.4,1.7c-6.4,0.3-12.8-1.7-17.8-5.8l-26.8-21.6c-15.5-12.4-37.5-12.4-53,0l-26.8,21.6
	c-5,4.1-11.3,6.1-17.8,5.8l-11-0.5c-33.4-1.6-63.5,20.3-72.3,52.6c-3.5,13.1-11.8,24.4-23.1,31.9c-27.9,18.4-39.4,53.7-27.6,85.1
	l3.9,10.3c2.3,6,2.3,12.7,0,18.7l-12.3,32.2c-7,18.6-0.2,39.5,16.4,50.4l28.8,18.8c5.4,3.5,9.3,8.9,11,15.1c1.2,4.3,5.6,6.8,9.8,5.6
	s6.8-5.6,5.6-9.8l0,0c-2.7-10-9-18.7-17.7-24.3l-28.8-18.8c-10.3-6.8-14.5-19.8-10.2-31.3L72.6,275c3.7-9.7,3.7-20.4,0-30.1
	l-3.9-10.3c-9.1-24.3-0.2-51.7,21.4-66c14.7-9.6,25.3-24.2,29.9-41.1c7-24.9,30.2-41.8,56.1-40.8l11,0.5c10.4,0.6,20.6-2.7,28.6-9.3
	l26.8-21.6c9.6-7.7,23.3-7.7,33,0L302.4,78c8,6.5,18.2,9.9,28.6,9.3l34.4-1.7c12.3-0.6,23.4,7.5,26.7,19.4l9,33.2
	c2.7,10,9,18.7,17.7,24.3l10.4,6.8c21,13.9,29.7,40.4,20.8,64l-4.4,11.6c-3.7,9.7-3.7,20.4,0,30.1l4.4,11.6
	c8.9,23.6,0.2,50.1-20.8,64l-10.4,6.8c-8.7,5.7-15,14.3-17.7,24.3l-9,33.2c-3.2,11.9-14.3,20-26.7,19.4l-34.4-1.7
	c-10.4-0.5-20.5,2.8-28.6,9.3l-9.4,7.6c-19.8,15.8-47.9,15.8-67.7,0l-9.4-7.6c-8.1-6.5-18.3-9.8-28.6-9.3l-12.1,0.6
	c-21.9,1.1-42.3-11.2-51.6-31.1c-1.9-4-6.6-5.7-10.6-3.9c-4,1.9-5.7,6.6-3.9,10.6c12,25.8,38.4,41.7,66.8,40.2l12.1-0.6
	c6.4-0.3,12.8,1.7,17.8,5.8l9.5,7.6c25.7,20.5,62.1,20.5,87.8,0l9.4-7.6c5-4.1,11.4-6.1,17.8-5.8l34.4,1.7
	c19.8,0.9,37.6-12,42.9-31.1l9-33.2c1.7-6.2,5.6-11.6,11-15.1l10.4-6.8c27.3-18,38.5-52.5,27-83.1L460.4,269.3z"/>
<path class="st0" d="M317.1,151.3c4.4,0,8-3.6,8-8s-3.6-8-8-8h-20.5c-4.4,0-8,3.6-8,8s3.6,8,8,8l0,0H317.1z"/>
<path class="st0" d="M83.5,213.4H104c4.4,0,8-3.6,8-8s-3.6-8-8-8H83.5c-4.4,0-8,3.6-8,8S79,213.4,83.5,213.4z"/>
<path class="st0" d="M246.4,96.4c1,0,2-0.2,2.9-0.5l19.1-7.4c4.1-1.6,6.2-6.2,4.6-10.4c-1.6-4.1-6.2-6.2-10.4-4.6l-19.1,7.4
	c-4.1,1.6-6.2,6.2-4.6,10.3C240.1,94.3,243.1,96.4,246.4,96.4z"/>
<path class="st0" d="M142.8,154.4l-19.1,7.4c-4.1,1.6-6.2,6.2-4.6,10.4c1.2,3.1,4.1,5.1,7.4,5.1c1,0,2-0.2,2.9-0.5l19.1-7.4
	c4.1-1.6,6.2-6.2,4.6-10.4C151.6,154.8,147,152.8,142.8,154.4L142.8,154.4z"/>
<path class="st0" d="M234.7,120.4c-1.7,4.1,0.2,8.8,4.2,10.5c0,0,0,0,0,0l18.9,8c1,0.4,2,0.6,3.1,0.6c4.4,0,8-3.6,8-8
	c0-3.2-1.9-6.1-4.9-7.3l-18.9-8C241.2,114.4,236.5,116.3,234.7,120.4C234.7,120.4,234.7,120.4,234.7,120.4z"/>
<path class="st0" d="M438.1,216.5c1.7-4.1-0.2-8.8-4.3-10.5c0,0,0,0,0,0l-18.9-8c-4.1-1.6-8.8,0.5-10.4,4.6
	c-1.5,3.9,0.3,8.4,4.1,10.2l18.9,8C431.7,222.4,436.4,220.5,438.1,216.5L438.1,216.5z"/>
<path class="st0" d="M183.6,107.5l-20.5-0.8c-4.3-0.3-8,2.9-8.3,7.2c0,0.2,0,0.3,0,0.5c-0.2,4.4,3.3,8.1,7.7,8.3c0,0,0,0,0,0
	l20.5,0.8h0.3c4.4,0.1,8.1-3.4,8.1-7.9S188,107.6,183.6,107.5L183.6,107.5z"/>
<path class="st0" d="M139.2,243.5c3.8,0,7.1-2.7,7.8-6.4l4.1-20.1c0.8-4.4-2.2-8.5-6.5-9.2c-4.2-0.7-8.2,1.9-9.2,6l-4.1,20.1
	c-0.9,4.3,1.9,8.5,6.2,9.4c0,0,0,0,0,0C138.1,243.5,138.7,243.5,139.2,243.5z"/>
<path class="st0" d="M194.1,135.7c-4.3-0.8-8.5,2-9.4,6.3l-4,20.1c-0.8,4.3,2,8.5,6.3,9.4c0.5,0.1,1,0.1,1.6,0.1
	c3.8,0,7.1-2.7,7.8-6.5l3.9-20.1C201.3,140.8,198.5,136.6,194.1,135.7C194.1,135.7,194.1,135.7,194.1,135.7z"/>
<path class="st0" d="M359.6,107.3c-4.3-0.8-8.5,2-9.4,6.3l-3.9,20.1c-0.8,4.3,2,8.5,6.3,9.4c0.5,0.1,1,0.1,1.5,0.1
	c3.8,0,7.1-2.7,7.9-6.5l3.9-20.1C366.8,112.3,363.9,108.1,359.6,107.3z"/>
<path class="st0" d="M114.9,280.8c3.6-2.6,4.4-7.6,1.8-11.2c0,0,0,0,0,0l-12.1-16.6c-2.7-3.5-7.7-4.2-11.2-1.6
	c-3.4,2.6-4.2,7.4-1.7,11l12.1,16.6C106.4,282.6,111.3,283.4,114.9,280.8C114.9,280.8,114.9,280.8,114.9,280.8L114.9,280.8z"/>
<path class="st0" d="M270.7,441.2c2.6,3.6,7.6,4.4,11.2,1.8c3.6-2.6,4.4-7.6,1.8-11.2l-12.1-16.6c-2.6-3.6-7.6-4.4-11.2-1.8
	s-4.4,7.6-1.8,11.2L270.7,441.2z"/>
<path class="st0" d="M75.9,324.3l17.2,11.1c3.7,2.4,8.7,1.3,11.1-2.4c2.4-3.7,1.3-8.7-2.4-11.1l-17.2-11.1
	c-3.7-2.5-8.6-1.5-11.1,2.2c-2.5,3.7-1.5,8.6,2.2,11.1C75.8,324.2,75.9,324.3,75.9,324.3z"/>
<path class="st0" d="M198.6,376.5l-2,20.4c-0.4,4.4,2.7,8.3,7.1,8.7c0,0,0,0,0,0c0.3,0,0.5,0,0.8,0c4.1,0,7.5-3.1,7.9-7.2l2-20.4
	c0.3-4.4-3.1-8.2-7.5-8.5C202.8,369.4,199.2,372.4,198.6,376.5z"/>
<path class="st0" d="M146.1,371.4c3.6,2.6,8.6,1.7,11.1-1.9c0,0,0,0,0,0l11.8-16.8c2.5-3.7,1.5-8.6-2.2-11.1
	c-3.5-2.4-8.3-1.6-10.9,1.9l-11.8,16.8C141.7,363.8,142.5,368.8,146.1,371.4C146.1,371.4,146.1,371.4,146.1,371.4z"/>
<path class="st0" d="M169.7,386.9l-18.7,8.5c-4,1.8-5.8,6.6-4,10.6c1.3,2.9,4.2,4.7,7.3,4.7c1.1,0,2.3-0.2,3.3-0.7l18.7-8.5
	c4-1.9,5.6-6.7,3.7-10.7C178.2,386.8,173.6,385.1,169.7,386.9L169.7,386.9z"/>
<path class="st0" d="M119.6,319.2c1.9,4,6.6,5.8,10.6,3.9c0,0,0,0,0,0l18.6-8.6c4-1.9,5.7-6.6,3.9-10.6c-1.9-4-6.6-5.7-10.6-3.9
	l-18.6,8.7C119.5,310.4,117.8,315.1,119.6,319.2C119.6,319.2,119.6,319.2,119.6,319.2z"/>
<path class="st0" d="M419.1,284.1c-4.2,1.2-6.7,5.7-5.4,9.9c0,0,0,0,0,0l5.7,19.7c1,3.4,4.1,5.8,7.7,5.8c0.8,0,1.5-0.1,2.2-0.3
	c4.2-1.2,6.7-5.7,5.4-9.9c0,0,0,0,0,0l-5.7-19.7C427.8,285.3,423.3,282.9,419.1,284.1C419.1,284.1,419.1,284.1,419.1,284.1z"/>
<path class="st0" d="M370.2,380.7c2.4,0,4.6-1,6.1-2.8l13.2-15.7c2.8-3.4,2.4-8.4-1-11.3c-3.4-2.8-8.4-2.4-11.3,1l-13.2,15.7
	c-2.9,3.4-2.4,8.4,0.9,11.3C366.5,380,368.3,380.7,370.2,380.7L370.2,380.7z"/>
<path class="st0" d="M271.6,389.6c4.4,0,8-3.6,8-8c0-3.8-2.6-7-6.3-7.8l-20-4.3c-4.3-0.8-8.5,2.1-9.3,6.4c-0.8,4.2,1.9,8.2,5.9,9.2
	l20,4.3C270.5,389.6,271,389.6,271.6,389.6z"/>
<path class="st0" d="M317,409.4l19.5,6.4c4.2,1.3,8.7-1,10-5.2c1.3-4.1-0.9-8.6-5.1-10l-19.5-6.4c-4.2-1.4-8.7,0.8-10.1,5
	c-1.4,4.2,0.8,8.7,5,10.1C316.9,409.3,317,409.3,317,409.4z"/>
<path class="st0" d="M314.3,376.9c4.4,0,7.9-3.5,8-7.9l0.3-20.5c0.1-4.4-3.5-8.1-7.9-8.1c0,0,0,0,0,0h-0.1c-4.4,0-7.9,3.5-8,7.9
	l-0.3,20.5C306.3,373.2,309.9,376.8,314.3,376.9C314.3,376.9,314.3,376.9,314.3,376.9L314.3,376.9z"/>
<path class="st0" d="M376.6,176.7h-20.5c-4.4,0-8,3.6-8,8s3.6,8,8,8h20.5c4.4,0,8-3.6,8-8S381,176.7,376.6,176.7z"/>
<path class="st0" d="M395.3,251.3l-12-16.6c-2.6-3.6-7.6-4.4-11.2-1.8s-4.4,7.6-1.8,11.2l12.1,16.6c2.6,3.6,7.6,4.4,11.2,1.8
	C397.2,259.8,397.9,254.8,395.3,251.3L395.3,251.3L395.3,251.3z"/>
<path class="st0" d="M367.6,318.6l18.6-8.6c4-1.9,5.7-6.6,3.9-10.6c-1.9-4-6.6-5.7-10.6-3.9l-18.6,8.7c-4.1,1.7-6,6.4-4.2,10.5
	c1.7,4.1,6.4,6,10.5,4.2C367.3,318.7,367.5,318.6,367.6,318.6z"/>
</svg>
