<?xml version="1.0" encoding="utf-8"?>
<!-- Generator: Adobe Illustrator 24.1.2, SVG Export Plug-In . SVG Version: 6.00 Build 0)  -->
<svg version="1.1" id="Capa_1" xmlns="http://www.w3.org/2000/svg" xmlns:xlink="http://www.w3.org/1999/xlink" x="0px" y="0px"
	 viewBox="0 0 512 512" style="enable-background:new 0 0 512 512;" xml:space="preserve">
<style type="text/css">
	.st0{fill:#FFFFFF;}
</style>
<g>
	<path class="st0" d="M511.9,163.7c-0.1-36.8-13.8-71.3-37.6-94.9c-23.7-24-59-37.8-95.7-37.8c-0.4,0,0.4,0,0,0
		c-35.2,0-68.2,11.6-92,32.7C273,75.6,262.8,89.9,256,106.1c-6.8-16.2-17-30.5-30.5-42.4c-24.1-21.3-57-33-92.5-32.7
		c-36.8,0-71.5,13.8-95.2,37.8C13.9,92.4,0.2,127,0.1,163.7C0.1,170.5,0,177.4,0,184.2c0.7,36.5,10.1,72.7,27.7,107.3
		c16.8,33.5,43.5,68.9,75,99.4c59.3,58.4,127.2,89.8,153.3,90.1c23.3-0.2,62.3-17.2,101.7-44.4c8.2-5.6,16.5-11.8,24.6-18.5
		c4.3-3.5,4.9-9.8,1.4-14.1c-1.9-2.3-4.7-3.7-7.8-3.7c-2.3,0-4.5,0.8-6.3,2.3c-7.7,6.3-15.6,12.2-23.3,17.5c0,0,0,0,0,0
		c-40.6,28-74.6,40.7-90.4,40.9c-16.1-0.2-78.8-24.7-139.4-84.4c-30-29.1-55.3-62.5-71.1-94.1c-16.2-31.9-24.8-65-25.5-98.4
		c0-6.8,0.1-13.5,0.1-20.3c0.1-31.5,11.6-60.9,31.7-80.7c0,0,0.1-0.1,0.1-0.1C72,62.7,101.5,51,133.1,51c0.3,0,0.7,0,1,0
		C199,51,244.9,94,246,155.9V200c0.1,24-9.9,47.7-27.4,64.9c-17.2,17-39.5,26.1-62.7,25.7c-22.5-0.4-43.3-9.3-58.6-25.2
		C81.5,248.9,73,226.7,73.5,203c0.3-14.2,0.7-28.4,1.2-42.3c0.9-29.5,24.6-53.2,54-54.1c14.2-0.5,27.3,4.4,36.9,13.8
		c9.3,9.2,14.3,21.9,14.1,35.8c-0.3,14.2-0.6,28.9-0.8,43.7c-0.1,12.8-10.8,23.6-23.3,23.7h-0.1c-5.8,0-11.2-2.2-15.2-6.3
		c-4.2-4.2-6.4-10-6.3-16.1c0.3-14.5,0.7-28.9,1.2-42.8c0.2-5.5-4.1-10.2-9.6-10.4c-5.5-0.2-10.2,4.1-10.4,9.6
		c-0.5,14.1-0.9,28.6-1.2,43.2c-0.2,11.6,4,22.4,12,30.6c7.8,7.9,18.3,12.3,29.5,12.3h0.2c23.6-0.1,43-19.6,43.2-43.5
		c0.2-14.7,0.4-29.4,0.7-43.5c0.4-19.5-6.8-37.4-20-50.5c-13.5-13.3-31.8-20.2-51.6-19.6c-39.9,1.2-72.1,33.5-73.3,73.5
		c-0.5,14-0.9,28.3-1.2,42.6c-0.6,27.7,8.9,53.8,26.8,73.8c20.1,30.2,52,65,85.3,93.1c26,22,63.7,47.9,90.3,47.9
		c28.1,0,65.3-25.6,90.7-47.3c30.9-26.5,61.6-60.3,82.6-90.9c19.6-20.4,30-47.6,29.4-76.6c-0.3-14.3-0.7-28.7-1.2-42.6
		c-1.2-40-33.4-72.3-73.3-73.5c-19.8-0.7-38.1,6.3-51.6,19.6c-13.3,13.1-20.4,31-20,50.5c0.3,14.2,0.6,28.8,0.7,43.4
		c0.3,23.9,19.8,43.4,43.3,43.5c11.2,0,21.7-4.4,29.5-12.3c8-8.1,12.3-19,12-30.6c-0.3-14.7-0.7-29.2-1.2-43.2
		c-0.2-5.5-4.8-9.8-10.4-9.6c-5.5,0.2-9.8,4.8-9.6,10.4c0.5,13.9,0.9,28.3,1.2,42.8c0.1,6.2-2.1,11.9-6.3,16.1
		c-4,4.1-9.5,6.3-15.3,6.3c-12.5-0.1-23.2-10.9-23.3-23.7c-0.2-14.8-0.4-29.4-0.8-43.6c-0.3-14,4.7-26.7,14.1-35.9
		c9.5-9.4,22.6-14.3,36.9-13.8c29.3,0.9,53,24.7,53.9,54.2c0.5,13.9,0.9,28.1,1.2,42.3c0.5,23.7-7.9,45.9-23.9,62.4
		c-15.2,15.9-36.8,24.8-59.4,25.2c-22.6,0-45-9.1-61.9-25.7C275.9,247.7,265.9,224,266,200v-44C267.1,94,313.5,51,378.4,51
		c0.3,0-0.3,0,0,0C410,51,440,62.7,460,82.9c0,0,0.1,0.1,0.1,0.1c20.1,19.8,31.7,49.3,31.7,80.8c0.1,6.8,0.1,13.6,0.1,20.3
		c0,42-15.2,87.7-44,132.2c0,0,0,0,0,0c0,0,0,0,0,0c-5.1,7.9-10.8,15.9-16.9,23.7c-3.4,4.3-2.6,10.6,1.7,14c1.8,1.4,3.9,2.1,6.1,2.1
		h0c3.1,0,6-1.4,7.9-3.9c6.5-8.3,12.5-16.8,17.9-25.2C495.7,279.5,512,230,512,184.1C512,177.3,511.9,170.5,511.9,163.7L511.9,163.7
		z M279.3,279.2c21.1,20.8,48.4,31.9,77,31.4c8.7-0.1,17.2-1.3,25.3-3.5c-15,17-31.8,33.7-48.2,47.8c-32.3,27.6-59.9,42.5-77.6,42.5
		c-15.6,0-44.6-15.5-77.4-43.2c-16.9-14.3-33.7-30.7-48.6-47.2c8.3,2.2,16.9,3.4,25.7,3.6c28.6,0.5,56-10.6,77.1-31.4
		c9.8-9.7,17.7-21.1,23.3-33.4C261.6,258.1,269.5,269.5,279.3,279.2L279.3,279.2z"/>
	<circle class="st0" cx="409.3" cy="380" r="10"/>
</g>
</svg>
